<svg viewBox="52 0 987.9999999999998 1027" xmlns="http://www.w3.org/2000/svg" xmlns:blush="http://design.blush" overflow="visible" xmlns:xlink="http://www.w3.org/1999/xlink" width="987.9999999999998px" height="1027px"><g id="Master/Composition/Mono Comp" stroke="none" stroke-width="1" fill="none" fill-rule="evenodd" blush:i="0"><g id="Mono/Bottom" fill="#000" blush:width="1040" blush:height="1040" blush:component="Mono/Bottom" blush:i="0.0" blush:value="King of Hearts" transform="scale(1 1)"><g id="Mono/Bottom/King of Hearts" stroke="none" stroke-width="1" fill="none" fill-rule="evenodd" blush:i="0.0.0"><g id="Ink" transform="translate(59.000000, 316.000000)" fill="#000" blush:i="0.0.0.0"><path d="M398.838751,344.854697 C407.19327,251.781623 326.094692,238.902649 263.167933,287.188624 C248.132762,299.687607 232.82602,311.992894 221.561985,328.338668 C218.106858,335.568363 208.136491,334.191513 205.085018,327.350445 C203.890104,324.614018 202.006387,322.775751 199.016635,322.125571 C175.705947,317.476853 156.549065,297.866613 131.675609,301.509836 C90.5128159,303.698484 37.9008264,324.564668 44.6209801,374.158404 C52.0867203,475.49011 201.955776,541.82935 271.627377,605.618457 C288.141377,618.96255 287.098297,621.447295 296.916832,600.136966 C305.287398,581.96773 312.434659,563.271689 321.86065,545.541663 C351.772987,481.792036 401.069339,417.970851 398.838751,344.854697 M425.416934,343.78258 C428.037597,417.071458 382.769141,478.637372 350.427475,540.869503 C331.0879,571.263833 326.810653,611.119688 300.396647,636.508749 C299.216546,637.59197 295.64415,638.268057 295.444175,637.897937 C292.586505,632.63235 287.614282,637.394572 284.062871,635.254039 C244.067834,611.478705 207.671116,580.780876 169.714098,553.432641 C109.682042,508.507364 33.8581182,465.436392 19.6203789,385.186774 C0.731364901,310.350791 87.9847346,262.666879 152.249599,280.770727 C171.099112,282.177187 197.173654,311.430311 208.427813,307.576118 C267.062512,210.540282 437.203126,199.676 425.416934,343.78258" id="Fill-1" blush:i="0.0.0.0.0"/><path d="M41.6074667,122.440112 C41.5345561,122.443819 41.4616455,122.448763 41.3874992,122.453707 C43.4055154,153.522932 51.0524748,184.032296 52.7541333,215.227584 C53.0210602,221.267414 53.8712715,226.024384 61.4094829,223.316532 C123.589841,206.021384 183.910361,180.294943 248.895922,175.194394 C255.85332,173.359086 272.926751,173.453014 270.170979,162.919461 C264.978263,145.620604 258.090068,128.58005 254.611369,110.835035 C249.890719,97.4156605 256.405711,72.1934656 245.470361,64.1144041 C227.674003,85.4410503 217.051304,112.196994 208.614686,138.66003 C200.186719,151.067204 182.974881,133.86104 176.148475,126.026686 C167.475824,121.23264 150.595174,61.1766759 144.26802,83.9666246 C134.044475,100.271819 147.953093,162.787219 118.987824,153.681127 C95.3783935,143.543061 75.257548,127.078435 53.705678,113.366153 C43.3041821,104.272419 39.5461984,111.499948 41.6074667,122.440112 M142.055987,20.8851836 C152.845515,19.6282759 171.432767,26.5530092 164.55693,40.1058605 C160.318231,46.7586964 151.09319,51.8518297 160.816247,58.5652246 C212.558036,144.007758 183.119467,99.2287221 233.966556,47.6806759 C243.211369,39.7907067 246.210589,37.2571169 237.076995,27.0757938 C223.23758,-9.35475487 262.195304,-4.20477026 277.459564,17.8362246 C284.11667,25.8485477 282.139434,34.3935426 275.027564,41.4097323 C263.840117,46.5856708 291.34841,128.644317 294.963044,142.666809 C298.562849,154.677261 313.131369,190.004153 292.33332,190.368743 C237.168442,187.042943 180.809808,207.60704 127.543076,222.151081 C105.699564,226.030563 35.5212878,261.199261 36.2578081,221.513358 C33.9147837,195.008302 27.7915317,169.105127 22.4999545,143.158696 C17.4777756,128.257481 26.2727675,104.412076 12.6681496,94.7016297 C-0.541021138,90.8703477 0.557580488,76.1718195 0.000247154472,65.03144 C1.84649106,41.2861426 32.7976455,52.5278656 37.409548,69.1222605 C38.3635642,80.7026195 42.4786862,83.4327169 52.7528976,87.8683528 C68.5819057,98.5638092 84.2811577,109.452066 99.9865886,120.330435 C105.960312,124.51024 116.534816,136.20183 117.354133,121.539143 C119.906003,100.692025 122.470231,79.841199 132.269906,60.7675938 C134.679662,56.3875733 130.068995,53.1915426 127.613515,50.13764 C117.294816,38.5313272 125.11602,17.0304195 142.054751,20.6182297 C142.055987,20.7084503 142.055987,20.796199 142.055987,20.8851836" id="Fill-3" blush:i="0.0.0.0.1"/><path d="M131,620.421635 C128.062874,639.41129 130.00969,659.796536 122.748253,677.804838 C113.732803,689.524351 104.850061,673.937374 105.340834,664.607133 C105.299519,649.879456 101.805265,591.899552 118.1435,589.284668 C138.277713,586.076781 126.972406,610.838659 131,620.421635" id="Fill-6" blush:i="0.0.0.0.2"/><path d="M60,567.433286 C51.9590996,584.377975 36.4009324,598.53813 25.2648311,613.811852 C21.3480039,619.475668 17.1503523,616.52379 12.3003048,613.175704 C-9.43600122,604.16134 58.2083643,524.971279 60,567.433286" id="Fill-8" blush:i="0.0.0.0.3"/><path d="M474.999099,386.044871 C487.927077,384.876045 548.03212,406.805865 529.473134,421 C508.335754,412.74096 485.579583,412.735975 463.544667,409.517342 C451.593674,407.551023 451.476982,406.871907 455.037328,395.419156 C457.186198,386.80872 469.303539,388.228009 474.999099,386.044871" id="Fill-10" blush:i="0.0.0.0.4"/><path d="M234.920208,660.298212 C230.617408,675.924248 235.090088,693.20382 229.404688,707.000123 C176.862168,660.646909 226.266248,608.30548 234.920208,660.298212" id="Fill-12" blush:i="0.0.0.0.5"/><path d="M423,613.628581 C422.636507,620.722338 415.146095,623.583437 409.341302,621.145112 C335.069284,589.424762 374.16877,543.951962 423,613.628581" id="Fill-15" blush:i="0.0.0.0.6"/><path d="M465.260413,513 C450.488553,508.603821 421.73581,503.482536 416,486.694326 C418.948968,464.453671 444.047742,482.78196 454.342723,489.240195 C462.752378,494.821903 491.356506,510.47629 465.260413,513" id="Fill-17" blush:i="0.0.0.0.7"/></g></g></g><g id="Mono/Top" fill="#000" blush:width="1040" blush:height="1040" blush:component="Mono/Top" blush:i="0.1" blush:value="Hand" transform="scale(1 1)"><g id="Mono/Top/Hand" stroke="none" stroke-width="1" fill="none" fill-rule="evenodd" blush:i="0.1.0"><g id="Ink" transform="translate(151.000000, 0.000000)" fill="#000" blush:i="0.1.0.0"><path d="M698.4091,362.8236 C697.7981,379.6906 700.3621,396.3086 701.0541,413.1526 C701.0341,417.1926 705.7711,418.4386 709.0431,417.4046 C746.5111,410.2636 784.3111,405.1536 822.2701,401.7416 C829.5011,398.1816 856.8621,401.6766 854.5821,391.7686 C845.4191,357.2606 861.6531,343.9746 819.3161,354.6616 C785.7731,356.9536 750.9871,367.1776 717.7381,362.2866 C711.3231,360.3106 705.7211,362.2886 698.4091,362.8236 M520.0601,20.1126 C479.3351,18.5136 439.2051,28.4326 400.0831,38.7156 C393.5661,40.2786 394.8221,45.3546 397.2701,49.9496 C404.6951,63.4906 407.7091,78.5186 408.7061,93.7466 C397.1731,100.7136 388.3311,41.7796 377.7201,46.6856 C332.7421,57.9716 369.2031,62.7526 368.3151,90.4016 C364.0501,98.0226 348.0931,68.2226 345.3201,63.7096 C332.7481,52.4086 276.6561,103.8576 265.9881,115.1246 C253.8721,130.5166 234.1851,141.3086 230.8231,162.7516 C226.8491,198.8606 264.5311,189.1616 286.9601,184.7096 C314.9791,180.3886 339.8621,168.2936 365.8891,157.8856 C380.4361,155.9226 421.0181,120.2826 427.1611,143.1006 C420.8571,157.0276 404.0881,157.4186 393.1731,166.4396 C389.1761,170.7046 366.7191,181.3986 374.0731,186.7776 C388.0531,191.9636 401.9341,197.7836 412.9191,208.1606 C429.0831,228.5476 402.4571,213.5786 394.6031,209.0776 C370.5901,199.7976 366.1511,181.8426 347.2351,209.1036 C346.0121,214.7026 354.8501,215.8936 358.3251,218.6456 C371.3061,226.3056 387.0951,232.3976 399.0361,239.8826 C392.8641,246.6276 380.2621,241.1146 372.7541,238.5826 C361.1421,236.2186 337.1221,213.8646 329.2521,225.2396 C312.9551,243.7326 299.9641,264.9906 287.5151,286.2316 C238.0771,405.9936 380.4981,319.1826 415.8431,281.3366 C441.7661,261.5906 463.2211,238.0856 482.8721,212.2136 C486.5661,202.7816 505.3481,200.9936 502.5151,213.7216 C499.9651,218.6666 508.8491,221.5486 504.0971,226.2766 C501.2391,233.5316 483.2051,245.6316 487.9101,252.2606 C496.6991,259.9066 519.1811,266.4726 522.2801,276.5086 C507.9571,285.4456 492.1231,266.0666 478.8311,261.2026 C471.5061,261.1906 469.0051,272.3206 464.4491,277.1276 C462.7321,284.7496 477.9751,285.2516 482.6421,289.4746 C507.4481,308.5936 471.0881,294.6026 461.9481,291.6246 C448.8401,283.9276 425.7041,353.4206 426.2231,364.6076 C423.8711,376.7456 432.5051,385.8876 441.2611,392.7616 C463.0011,402.9096 482.2821,374.1386 497.5441,362.0106 C536.0941,331.9746 558.8681,288.9596 590.8601,253.2296 C650.6331,201.2506 672.9491,266.3456 694.4171,314.2846 C698.6091,323.1796 697.8951,333.3706 702.3631,342.3746 C712.6811,356.5016 747.2261,341.0436 763.7121,342.2936 C773.4691,340.9686 826.1881,345.2106 821.6411,333.5906 C802.1111,289.0446 809.5601,235.6646 790.0111,190.1456 C758.0011,69.4576 635.4621,20.3146 520.0601,20.1126 M874.1611,626.0546 C865.2831,628.4316 849.2091,632.8236 846.9661,620.1106 C845.9101,610.2516 843.5491,592.7086 858.4041,594.1816 C868.4571,594.2526 875.6691,599.0966 873.1731,584.7086 C874.8851,529.3666 860.2141,476.0426 855.1861,421.4576 C856.9751,402.6406 833.0641,415.6226 822.5801,415.4866 C783.3681,417.7636 745.2681,426.8966 706.2461,430.6546 C696.9291,434.2186 704.3111,469.1196 702.0911,479.5726 C702.1011,481.5966 703.0191,483.1166 705.4091,482.6966 C721.1521,481.6156 734.2231,505.5546 720.0451,515.8356 C700.4981,530.0656 702.4761,519.7736 704.8871,546.4566 C708.1921,559.1436 703.2351,601.3746 713.2701,606.0306 C721.9971,607.0186 737.2131,611.7736 732.3391,623.4026 C728.8331,632.1046 725.0351,642.3196 713.4981,641.2376 C700.8871,643.2846 715.4711,721.0296 716.4661,735.1706 C724.4361,734.3556 737.3491,728.7686 739.6741,740.0416 C740.7921,747.8976 745.2661,761.7286 734.0081,762.8686 C725.2451,764.1356 710.3011,759.8686 707.1671,751.2756 C700.9051,712.9896 696.8861,674.3786 695.9441,635.5806 C691.9261,563.3266 681.0321,491.9796 681.5701,419.4786 C679.4941,393.8316 680.3531,367.4966 684.1571,342.9516 C673.5761,323.5036 653.6721,266.5856 635.9331,258.1846 C585.4121,254.5656 526.9091,403.5156 451.9281,410.1486 C431.1141,414.8436 408.3071,389.8076 407.9171,370.1916 C408.6161,348.9766 413.2431,328.5416 421.5591,308.9616 C422.0641,307.4296 419.9411,306.5106 418.8491,307.4206 C381.6691,335.8686 336.7031,367.8046 287.6211,360.9566 C226.8851,337.0116 281.2121,266.6276 302.7711,231.3746 C311.3031,217.7296 322.7491,206.4856 333.3911,194.5786 C348.6521,180.5276 326.1541,189.5946 319.5191,191.5996 C293.5731,195.6856 265.5151,209.2486 238.2121,200.7906 C214.6331,190.5006 212.9041,157.9626 226.3201,138.6176 C237.6131,118.7736 255.6121,104.6066 271.8941,89.1326 C292.6121,66.4786 317.3601,48.6156 346.1601,37.7196 C426.6371,5.1196 515.4211,-9.7134 601.2141,9.6186 C724.8481,23.3056 804.5501,134.8476 820.3701,251.5476 C820.3951,266.8686 822.6101,281.9556 828.6251,296.2846 C833.9501,308.8856 827.4691,322.6326 829.0011,335.9256 C839.8811,339.0176 858.7471,330.4456 861.0331,347.2166 C871.6921,382.9736 865.0661,419.7496 870.6401,456.0756 C886.8891,548.9316 885.2591,645.3306 888.7281,738.8256 C870.2481,763.088005 841.6711,727.8966 870.9431,715.2536 C884.8281,719.2756 874.9431,636.3336 874.1611,626.0546" id="Fill-1" blush:i="0.1.0.0.0"/><path d="M97.003,205.8461 C97.228,205.2581 97.452,204.6691 97.677,204.0801 C95.67,203.5331 95.041,205.0471 97.003,205.8461 M87.735,193.8511 C87.506,193.2331 87.278,192.6151 87.049,191.9971 C85.09,192.3381 85.342,193.1301 86.031,194.5841 C86.599,194.3421 87.166,194.0991 87.735,193.8511 M86.166,153.1621 C86.147,152.9601 86.128,152.7591 86.108,152.5571 C53.627,154.1121 71.209,159.0101 85.839,172.3211 C92.509,175.3441 108.441,203.1691 113.549,192.7611 C122.826,170.3731 111.279,150.8311 86.166,153.1621 M228.804,52.0801 C163.612,53.9421 55.586,19.0661 18.356,91.5651 C13.556,108.4601 12.246,130.7711 29.377,140.9001 C35.819,143.7821 44.539,151.5351 50.922,144.8781 C57.711,138.9821 66.721,133.9541 75.722,137.4911 C88.731,140.9661 102.712,138.5861 114.624,146.2581 C143.328,162.3651 124.346,196.1651 114.789,217.6041 C112.255,252.6951 78.806,283.3601 43.185,273.2851 C33.233,260.9341 88.146,273.9131 99.442,234.8981 C100.554,230.5901 107.744,217.0541 98.481,218.3841 C75.268,223.4281 38.836,220.0651 36.02,190.6601 C34.841,182.4171 34.43,174.0721 36.936,165.8211 C41.617,157.5071 8.675,151.4731 4.039,127.5561 C-18.068,63.8181 55.274,24.6121 110.02,28.5881 C179.165,29.3491 248.622,42.7971 317.232,32.6001 C295.62,55.6261 259.242,47.9131 228.804,52.0801" id="Fill-4" blush:i="0.1.0.0.1"/><path d="M780.3138,539.5082 C798.3678,539.0692 794.9058,565.0392 786.2078,574.1222 C761.6378,585.4622 747.9478,537.2202 780.3138,539.5082" id="Fill-6" blush:i="0.1.0.0.2"/><path d="M809.8475,675.0394 C809.2915,698.2234 771.9305,692.5584 777.3855,671.5064 C780.6375,665.1644 781.7315,653.6804 791.2535,654.9524 C802.0575,656.8504 810.8205,662.1114 809.8475,675.0394" id="Fill-8" blush:i="0.1.0.0.3"/><path d="M767.6332,464.2904 C759.5352,462.6044 748.2032,458.5254 753.4792,447.2214 C757.4792,437.6564 764.9192,423.3114 777.2112,431.6594 C792.2552,440.6124 787.7092,465.7494 767.6332,464.2904" id="Fill-10" blush:i="0.1.0.0.4"/><path d="M858.4152,493.7196 C860.1382,513.2976 827.3892,507.8686 823.4942,494.5716 C818.4222,470.4416 861.0272,470.7966 858.4152,493.7196" id="Fill-12" blush:i="0.1.0.0.5"/></g></g></g></g></svg>