<!--?xml version="1.0" standalone="no"?-->              <svg id="sw-js-blob-svg" viewBox="0 0 100 100" xmlns="http://www.w3.org/2000/svg">                    <defs>                         <linearGradient id="sw-gradient" x1="0" x2="1" y1="1" y2="0">                            <stop id="stop1" stop-color="rgba(253, 255, 196, 1)" offset="0%"></stop>                            <stop id="stop2" stop-color="rgba(0, 16, 13, 1)" offset="100%"></stop>                        </linearGradient>                    </defs>                <path fill="url(#sw-gradient)" d="M18.3,-27.9C23.2,-21.5,26.5,-15.6,28.7,-9.2C30.8,-2.9,31.9,3.9,31.3,11.4C30.6,18.9,28.1,27.1,22.6,30.4C17.1,33.6,8.6,31.9,0.1,31.8C-8.4,31.7,-16.8,33.2,-24.1,30.6C-31.4,27.9,-37.6,21.1,-40,13.1C-42.5,5.1,-41.2,-3.9,-36.9,-10.4C-32.6,-16.9,-25.3,-20.8,-18.6,-26.6C-12,-32.4,-6,-40.1,0.3,-40.5C6.7,-41,13.3,-34.3,18.3,-27.9Z" width="100%" height="100%" transform="translate(50 50)" style="transition: 0.3s;" stroke-width="0" stroke="url(#sw-gradient)"></path>              </svg>