<!--?xml version="1.0" standalone="no"?-->              <svg id="sw-js-blob-svg" viewBox="0 0 100 100" xmlns="http://www.w3.org/2000/svg">                    <defs>                         <linearGradient id="sw-gradient" x1="0" x2="1" y1="1" y2="0">                            <stop id="stop1" stop-color="rgba(253, 255, 196, 1)" offset="0%"></stop>                            <stop id="stop2" stop-color="rgba(0, 16, 13, 1)" offset="100%"></stop>                        </linearGradient>                    </defs>                <path fill="url(#sw-gradient)" d="M22.5,-33.5C27.4,-27.3,28.6,-18.5,32.1,-9.9C35.6,-1.4,41.3,6.9,40.9,14.9C40.5,22.9,34.1,30.5,26.3,34.4C18.4,38.3,9.2,38.6,0.1,38.5C-9.1,38.4,-18.1,37.9,-25.8,33.9C-33.4,29.9,-39.7,22.4,-42.4,13.8C-45.1,5.2,-44.4,-4.5,-40,-11.5C-35.7,-18.5,-27.7,-22.9,-20.5,-28.3C-13.2,-33.7,-6.6,-40.2,1.1,-41.7C8.7,-43.2,17.5,-39.7,22.5,-33.5Z" width="100%" height="100%" transform="translate(50 50)" style="transition: 0.3s;" stroke-width="0" stroke="url(#sw-gradient)"></path>              </svg>