<!--?xml version="1.0" standalone="no"?-->              <svg id="sw-js-blob-svg" viewBox="0 0 100 100" xmlns="http://www.w3.org/2000/svg">                    <defs>                         <linearGradient id="sw-gradient" x1="0" x2="1" y1="1" y2="0">                            <stop id="stop1" stop-color="rgba(253, 255, 196, 1)" offset="0%"></stop>                            <stop id="stop2" stop-color="rgba(0, 16, 13, 1)" offset="100%"></stop>                        </linearGradient>                    </defs>                <path fill="url(#sw-gradient)" d="M20,-28.7C25.1,-23.8,28,-16.9,32.1,-9.3C36.2,-1.6,41.5,6.8,40.7,14.5C40,22.2,33.1,29.2,25.3,33.9C17.5,38.5,8.8,40.9,1.1,39.4C-6.7,38,-13.3,32.7,-20.4,27.8C-27.6,23,-35.2,18.4,-38.7,11.6C-42.2,4.8,-41.5,-4.2,-38.3,-12C-35.1,-19.7,-29.3,-26,-22.5,-30.4C-15.7,-34.8,-7.8,-37.1,-0.2,-36.8C7.4,-36.6,14.8,-33.6,20,-28.7Z" width="100%" height="100%" transform="translate(50 50)" style="transition: 0.3s;" stroke-width="0" stroke="url(#sw-gradient)"></path>              </svg>